<?xml version="1.0" encoding="utf-8"?>
<!-- Generator: Adobe Illustrator 18.0.0, SVG Export Plug-In . SVG Version: 6.00 Build 0)  -->
<!DOCTYPE svg PUBLIC "-//W3C//DTD SVG 1.1//EN" "http://www.w3.org/Graphics/SVG/1.1/DTD/svg11.dtd">
<svg version="1.1" id="Layer_1" xmlns="http://www.w3.org/2000/svg" xmlns:xlink="http://www.w3.org/1999/xlink" x="0px" y="0px"
	 viewBox="0 0 1024 768" enable-background="new 0 0 1024 768" xml:space="preserve">
<g>
	<path fill="none" stroke="#FFFFFF" stroke-width="80" stroke-miterlimit="10" d="M256,419.5c-20.4,16.8-33.7,43.3-33.7,73.3
		c0,51.7,40.9,94.9,91.3,94.9h474.7c42.1,0,76.9-34.9,76.9-76.9c0-38.5-28.8-70.9-67.3-75.7l-22.8-2.4l-2.3-22.9
		c-7.2-84.1-79.3-150.2-163.5-150.2c-22.8,0-45.7,4.8-66.1,14.4"/>
	<path fill="none" stroke="#FFFFFF" stroke-width="80" stroke-miterlimit="10" d="M331.8,397.9l6-19.2c9.6-33.7,42.1-57.7,76.9-57.7
		c12,0,22.8,2.4,33.7,7.2l20.4,9.6L482,321c16.8-21.6,38.5-37.3,62.5-48.1l-1.2-4.8c-7.2-24-30-42.1-56.5-42.1
		c-8.4,0-16.8,2.4-24,4.8l-14.4,7.2l-9.6-12c-22.8-28.8-56.5-45.7-93.7-45.7c-61.3,0-114.2,48.1-119,109.4l-1.2,16.8l-16.8,2.4
		c-27.6,3.6-49.3,27.6-49.3,55.3c0,31.2,25.2,56.5,56.5,56.5h42.1c15.6-13.2,34.9-20.4,55.3-21.6L331.8,397.9z"/>
</g>
</svg>
