<?xml version="1.0" encoding="utf-8"?>
<!-- Generator: Adobe Illustrator 18.0.0, SVG Export Plug-In . SVG Version: 6.00 Build 0)  -->
<!DOCTYPE svg PUBLIC "-//W3C//DTD SVG 1.1//EN" "http://www.w3.org/Graphics/SVG/1.1/DTD/svg11.dtd">
<svg version="1.1" id="Layer_1" xmlns="http://www.w3.org/2000/svg" xmlns:xlink="http://www.w3.org/1999/xlink" x="0px" y="0px"
	 viewBox="0 0 223.8 59.6" enable-background="new 0 0 223.8 59.6" xml:space="preserve">
<path id="path27_6_" fill="none" stroke="#FFFFFF" stroke-width="2.0661" stroke-linecap="round" stroke-linejoin="round" stroke-miterlimit="10" d="
	M1,29.5V52c0,3.6,3.5,6.6,7.7,6.6h89.4c4.3,0,7.7-3,7.7-6.6c0,3.6,3.5,6.6,7.7,6.6h27.9c4.3,0,7.7-3,7.7-6.6V7.6
	c0-3.6-3.5-6.6-7.7-6.6h-27.9c-4.3,0-7.7,3-7.7,6.6c0-3.6-3.5-6.6-7.7-6.6H8.8C4.5,1,1,4,1,7.6v10l167.8,0c0.3,0,0.6,0.2,0.8,0.4
	l5.4,8.1c0.2,0.3,0.5,0.4,0.8,0.4l9.5-0.5c0.6,0,1-0.7,0.8-1.2l-8.6-22.5c-0.2-0.6,0.2-1.2,0.9-1.2h4.1c0.3,0,0.5,0.1,0.7,0.4
	l19,24.2c0.2,0.2,0.4,0.4,0.7,0.4h12.6c2.4,0,4.8,0.9,6.6,2.4c0.3,0.3,0.5,0.7,0.5,1.1c0,0.4-0.2,0.9-0.5,1.1
	c-1.8,1.6-4.2,2.4-6.6,2.4H203c-0.3,0-0.5,0.1-0.7,0.4l-19,24.2c-0.2,0.2-0.4,0.4-0.7,0.4h-4.2c-0.6,0-1.1-0.6-0.9-1.2l8.6-22.5
	c0.2-0.6-0.2-1.2-0.8-1.2l-9.5-0.5c-0.3,0-0.6,0.1-0.8,0.4l-5.4,8.1c-0.2,0.3-0.5,0.4-0.8,0.4h-2.9c-0.6,0-1.1-0.7-0.9-1.3l4.1-10.3
	"/>
<rect x="7.5" y="28.2" fill="none" width="136.4" height="16.1"/>
<text transform="matrix(1 0 0 1 7.4755 42.8618)" fill="#FFFFFF" font-family="'GothamRounded-Medium'" font-size="19.9705">flightmode</text>
</svg>
