<?xml version="1.0" encoding="utf-8"?>
<!-- Generator: Adobe Illustrator 18.0.0, SVG Export Plug-In . SVG Version: 6.00 Build 0)  -->
<!DOCTYPE svg PUBLIC "-//W3C//DTD SVG 1.1//EN" "http://www.w3.org/Graphics/SVG/1.1/DTD/svg11.dtd">
<svg version="1.1" id="Layer_1" xmlns="http://www.w3.org/2000/svg" xmlns:xlink="http://www.w3.org/1999/xlink" x="0px" y="0px"
	 viewBox="0 0 1024 768" enable-background="new 0 0 1024 768" xml:space="preserve">
<g>
	<path fill="none" stroke="#FFFFFF" stroke-width="80" stroke-linecap="round" stroke-linejoin="round" stroke-miterlimit="10" d="
		M224.2,259.6c-20.4,16.8-33.7,43.3-33.7,73.3c0,51.7,40.9,94.9,91.3,94.9h474.7c42.1,0,76.9-34.9,76.9-76.9
		c0-38.5-28.8-70.9-67.3-75.7l-22.8-2.4l-2.4-22.8c-7.2-84.1-79.3-150.2-163.4-150.2c-22.8,0-45.7,4.8-66.1,14.4"/>
	<path fill="none" stroke="#FFFFFF" stroke-width="80" stroke-miterlimit="10" d="M224.2,259.6c15.6-13.2,34.9-20.4,55.3-21.6H300
		l6-19.2c9.6-33.7,42.1-57.7,76.9-57.7c12,0,22.8,2.4,33.7,7.2l20.4,9.6l13.2-16.8c16.8-21.6,38.5-37.3,62.5-48.1"/>
	<g>
		<g>
			
				<line fill="none" stroke="#FFFFFF" stroke-width="80" stroke-linecap="round" stroke-linejoin="round" x1="320.3" y1="497.6" x2="331.1" y2="525.2"/>
			
				<line fill="none" stroke="#FFFFFF" stroke-width="80" stroke-linecap="round" stroke-linejoin="round" x1="364.8" y1="602.1" x2="376.8" y2="629.8"/>
		</g>
	</g>
	<g>
		<g>
			
				<line fill="none" stroke="#FFFFFF" stroke-width="80" stroke-linecap="round" stroke-linejoin="round" x1="436.9" y1="497.6" x2="456.1" y2="540.8"/>
			
				<line fill="none" stroke="#FFFFFF" stroke-width="80" stroke-linecap="round" stroke-linejoin="round" x1="491" y1="623.8" x2="510.2" y2="668.2"/>
		</g>
	</g>
	<g>
		<g>
			
				<line fill="none" stroke="#FFFFFF" stroke-width="80" stroke-linecap="round" stroke-linejoin="round" x1="570.3" y1="497.6" x2="582.3" y2="525.2"/>
			
				<line fill="none" stroke="#FFFFFF" stroke-width="80" stroke-linecap="round" stroke-linejoin="round" x1="616" y1="602.1" x2="628" y2="629.8"/>
		</g>
	</g>
	<g>
		<g>
			
				<line fill="none" stroke="#FFFFFF" stroke-width="80" stroke-linecap="round" stroke-linejoin="round" x1="688.1" y1="496.4" x2="707.3" y2="540.8"/>
			
				<line fill="none" stroke="#FFFFFF" stroke-width="80" stroke-linecap="round" stroke-linejoin="round" x1="742.2" y1="622.6" x2="761.4" y2="667"/>
		</g>
	</g>
</g>
</svg>
