<svg id="Layer_1" data-name="Layer 1" xmlns="http://www.w3.org/2000/svg" viewBox="0 0 640.9 852.45"><defs><style>.cls-1{fill:none;stroke:#fff;stroke-linecap:round;stroke-linejoin:round;stroke-width:10.59px;}</style></defs><title>window</title><rect class="cls-1" x="5.29" y="5.29" width="630.31" height="841.86" rx="315.16" ry="315.16"/><rect class="cls-1" x="252.29" y="179.01" width="136.33" height="37.06" rx="18.53" ry="18.53"/><path class="cls-1" d="M66.38,311.23c0.39-140,114-242.78,254.07-242.78h0c140.33,0,254.09,103.17,254.09,243.5"/><path class="cls-1" d="M66.38,311.23c0,0.24,0,.48,0,0.72"/><line class="cls-1" x1="66.36" y1="428.43" x2="66.36" y2="311.95"/><line class="cls-1" x1="574.54" y1="536.03" x2="574.54" y2="311.95"/><path class="cls-1" d="M66.36,428.43V540.5C66.36,680.83,180.12,784,320.45,784h0c94.09,0,176.17-40.59,220.09-116.59"/><path class="cls-1" d="M574.54,536v4.47a252.82,252.82,0,0,1-34,126.91"/><line class="cls-1" x1="152.96" y1="311.95" x2="574.54" y2="311.95"/><line class="cls-1" x1="152.96" y1="311.95" x2="66.36" y2="311.95"/><path class="cls-1" d="M574.54,536a46.45,46.45,0,0,0-62.61-24.43A58.77,58.77,0,0,0,400.68,513c-1,0-2-.15-2.95-0.15a77.29,77.29,0,0,0,0,154.57H540.54"/><path class="cls-1" d="M153,311.95a72.57,72.57,0,0,1-86.6,116.48"/><line class="cls-1" x1="175.28" y1="437.68" x2="219.16" y2="481.56"/><line class="cls-1" x1="264.71" y1="371.59" x2="202.65" y2="371.59"/><line class="cls-1" x1="109.19" y1="527.11" x2="109.19" y2="465.05"/></svg>